<?xml version="1.0" encoding="UTF-8" standalone="no"?>
<!-- Created with Inkscape (http://www.inkscape.org/) -->

<svg
   xmlns:dc="http://purl.org/dc/elements/1.1/"
   xmlns:cc="http://creativecommons.org/ns#"
   xmlns:rdf="http://www.w3.org/1999/02/22-rdf-syntax-ns#"
   xmlns:svg="http://www.w3.org/2000/svg"
   xmlns="http://www.w3.org/2000/svg"
   xmlns:sodipodi="http://sodipodi.sourceforge.net/DTD/sodipodi-0.dtd"
   xmlns:inkscape="http://www.inkscape.org/namespaces/inkscape"
   width="200"
   height="29.027"
   viewBox="0 0 200.00001 29.027001"
   id="svg2"
   version="1.1"
   inkscape:version="0.91 r13725"
   sodipodi:docname="logo-vermelha.svg">
  <defs
     id="defs4" />
  <sodipodi:namedview
     id="base"
     pagecolor="#ffffff"
     bordercolor="#666666"
     borderopacity="1.0"
     inkscape:pageopacity="0.0"
     inkscape:pageshadow="2"
     inkscape:zoom="3.8066526"
     inkscape:cx="104.57344"
     inkscape:cy="13.493347"
     inkscape:document-units="px"
     inkscape:current-layer="layer1"
     showgrid="false"
     showguides="true"
     inkscape:guide-bbox="true"
     inkscape:window-width="1366"
     inkscape:window-height="706"
     inkscape:window-x="-8"
     inkscape:window-y="-8"
     inkscape:window-maximized="1"
     units="px">
    <sodipodi:guide
       position="245.43434,585.81245"
       orientation="1,0"
       id="guide4292" />
  </sodipodi:namedview>
  <metadata
     id="metadata7">
    <rdf:RDF>
      <cc:Work
         rdf:about="">
        <dc:format>image/svg+xml</dc:format>
        <dc:type
           rdf:resource="http://purl.org/dc/dcmitype/StillImage" />
        <dc:title></dc:title>
      </cc:Work>
    </rdf:RDF>
  </metadata>
  <g
     inkscape:label="Camada 1"
     inkscape:groupmode="layer"
     id="layer1"
     transform="translate(0,-1023.3352)">
    <g
       id="g4893"
       transform="translate(-305.77553,-79.971954)">
      <g
         clip-path="none"
         id="g4382"
         transform="matrix(0.43350331,0,0,0.43350331,305.77542,676.13143)">
        <g
           transform="translate(-141.21434,554.85881)"
           style="font-style:normal;font-variant:normal;font-weight:normal;font-stretch:normal;font-size:70px;line-height:125%;font-family:Pacifico;-inkscape-font-specification:'Pacifico, Normal';text-align:start;letter-spacing:0px;word-spacing:0px;writing-mode:lr-tb;text-anchor:start;fill:#d40000;fill-opacity:1;stroke:none;stroke-width:1px;stroke-linecap:butt;stroke-linejoin:miter;stroke-opacity:1"
           id="g4302">
          <path
             inkscape:connector-curvature="0"
             d="m 155.19412,446.54144 q -0.13672,0.0684 -0.13672,0.0684 -0.10254,0 -0.20507,-1.19629 -0.0684,-1.23047 -0.0684,-3.28125 0,-0.41015 0.37597,-1.05957 0.37598,-0.68359 1.26465,-1.43554 0.88867,-0.75196 2.32422,-1.50391 1.46973,-0.75195 3.65723,-1.36719 2.22168,-0.61523 5.19531,-0.99121 3.00781,-0.37598 6.93848,-0.37598 3.38378,0 5.26367,0.3418 1.91406,0.30762 2.87109,0.85449 0.95703,0.5127 1.16211,1.23047 0.23926,0.6836 0.23926,1.40137 0,0.75195 -0.1709,1.46973 -0.1709,0.71777 -0.88867,1.29882 -0.71778,0.54688 -2.15332,0.88868 -1.43555,0.34179 -3.93067,0.34179 -1.12793,0 -2.25586,-0.10254 -0.95703,3.72559 -1.6748,6.66504 -0.71777,2.93946 -1.29883,5.43457 -0.58105,2.46094 -1.05957,4.64844 -0.47851,2.1875 -0.99121,4.40918 -0.47852,2.22168 -1.02539,4.64844 -0.54688,2.42676 -1.26465,5.36621 -0.68359,2.93945 -1.64062,6.59668 -0.92286,3.62305 -2.15332,8.27148 0.20507,0 0.92285,0.0684 0.75195,0.0684 1.70898,0.23926 0.95703,0.1709 2.0166,0.44434 1.09375,0.27343 1.98243,0.68359 0.88867,0.41016 1.46972,0.95703 0.58106,0.54688 0.58106,1.26465 0,1.43555 -2.46094,2.80273 -0.71777,0 -2.32422,0 -1.57227,0 -3.72559,0 -2.15332,0 -4.64843,0 -2.49512,0 -4.99024,0 -2.49511,0.0342 -4.85351,0 -2.32422,0 -4.10157,-0.0342 -1.77734,0 -2.83691,-0.0342 -1.09375,-0.0342 -1.09375,-0.10253 0,-0.10254 0.3418,-0.3418 0.30761,-0.20508 0.71777,-0.58106 0.41016,-0.41015 0.78613,-0.99121 0.37598,-0.58105 0.47852,-1.43554 0.0684,-0.58106 1.16211,-1.09375 1.09375,-0.54688 2.63183,-0.95703 1.53809,-0.44434 3.24707,-0.71778 1.74317,-0.27344 3.07618,-0.37597 1.05957,-4.47754 2.11914,-8.95508 1.09375,-4.47754 2.11914,-8.75 1.05957,-4.30664 2.05078,-8.30567 1.02539,-4.0332 1.98242,-7.55371 0.95703,-3.52051 1.8457,-6.45996 0.88868,-2.93945 1.67481,-5.12695 -1.26465,0.13672 -2.22168,0.27344 -0.95703,0.13671 -1.70899,0.30761 -0.75195,0.1709 -1.43554,0.37598 -0.64942,0.20508 -1.36719,0.47851 -0.71777,0.23926 -1.57227,0.58106 -0.82031,0.30762 -1.94824,0.71777 z"
             style="fill:#d40000"
             id="path4304" />
          <path
             d="m 187.42557,483.35297 c 0.29622,-0.20508 0.79752,-0.53548 1.5039,-0.99121 0.70638,-0.47852 1.53809,-1.03679 2.49512,-1.67481 0.95703,-0.63802 1.98242,-1.33301 3.07617,-2.08496 1.11654,-0.77474 2.21029,-1.54948 3.28125,-2.32422 l 0.27344,-2.32422 c 0.5013,-4.78515 1.31022,-9.17155 2.42676,-13.15918 1.11653,-4.01041 2.42675,-7.62207 3.93066,-10.83496 1.52669,-3.23567 3.17871,-6.06119 4.95606,-8.47656 1.80013,-2.41537 3.62304,-4.43197 5.46875,-6.04981 1.86849,-1.64062 3.7028,-2.85969 5.50293,-3.65722 1.82291,-0.82031 3.5205,-1.23047 5.09277,-1.23047 1.13932,0 2.1875,0.21647 3.14453,0.64941 0.95703,0.43295 1.77735,1.08236 2.46094,1.94825 0.68359,0.86588 1.21907,1.94824 1.60644,3.24707 0.38737,1.29883 0.58106,2.81412 0.58106,4.54589 0,2.11915 -0.31901,4.34083 -0.95703,6.66504 -0.63802,2.32422 -1.54948,4.67123 -2.73438,7.04102 -1.16211,2.36979 -2.56347,4.73958 -4.2041,7.10937 -1.64063,2.34701 -3.46354,4.61426 -5.46875,6.80176 -1.98242,2.1875 -4.13574,4.26107 -6.45996,6.2207 -2.30143,1.93685 -4.69401,3.66863 -7.17773,5.19532 -4.30972,15.93124 21.70641,10.94644 31.2359,8.75449 1.188,-0.0136 8.1154,4.63445 8.1154,4.63445 -7.98526,1.93393 -49.38852,11.53454 -48.3406,-7.92021 -1.95964,1.43555 -3.62305,2.57487 -4.99024,3.41797 -1.36719,0.84309 -2.24446,1.26464 -2.63183,1.26464 -0.38737,0 -0.75196,-0.12532 -1.09375,-0.37597 -0.36459,-0.27344 -0.69499,-0.62663 -0.99121,-1.05957 -0.29623,-0.43295 -0.52409,-0.91146 -0.6836,-1.43555 -0.18229,-0.54687 -0.27343,-1.08235 -0.27343,-1.60644 0,-0.43295 0.057,-0.8545 0.17089,-1.26465 0.0911,-0.43295 0.31901,-0.77474 0.6836,-1.02539 z m 19.41406,-11.99707 c 1.16211,-1.20769 2.36979,-2.51791 3.62305,-3.93067 1.27604,-1.43555 2.52929,-2.92806 3.75976,-4.47754 1.25326,-1.57227 2.44955,-3.16732 3.58887,-4.78515 1.16211,-1.64063 2.19889,-3.26986 3.11035,-4.8877 0.93425,-1.61784 1.70899,-3.19011 2.32422,-4.7168 0.63802,-1.52669 1.04818,-2.97363 1.23047,-4.34082 0.0684,-0.45573 0.11393,-0.88867 0.13672,-1.29882 0.0228,-0.43295 0.0342,-0.83171 0.0342,-1.19629 0,-1.29883 -0.18229,-2.24447 -0.54688,-2.83692 -0.34179,-0.59245 -0.82031,-0.88867 -1.43554,-0.88867 -0.72917,0 -1.58366,0.38737 -2.56348,1.16211 -0.97982,0.75195 -2.00521,1.83431 -3.07617,3.24707 -1.07097,1.41276 -2.15332,3.12174 -3.24707,5.12695 -1.09375,2.00521 -2.10775,4.23829 -3.042,6.69922 -0.93424,2.46094 -1.75455,5.13835 -2.46093,8.03223 -0.68359,2.89388 -1.16211,5.92448 -1.43555,9.0918 z"
             id="path4306"
             inkscape:connector-curvature="0"
             sodipodi:nodetypes="ccsccccccccssssssccccccccsscscscccccccccccscscsssccc"
             style="fill:#d40000" />
          <path
             d="m 268.02127,479.01215 c -0.0684,-1.27605 -0.13672,-2.42676 -0.20508,-3.45215 -0.0456,-1.02539 -0.0798,-1.97103 -0.10254,-2.83692 -0.0228,-0.86588 -0.0342,-1.75455 -0.0342,-2.66601 0,-2.34701 0.10254,-4.16992 0.30762,-5.46875 0.22787,-1.32161 0.70638,-2.03939 1.43555,-2.15332 l 4.10156,-0.64942 c 0.11393,-0.0228 0.21647,-0.0342 0.30762,-0.0342 0.11393,-0.0228 0.22786,-0.0342 0.34179,-0.0342 0.77474,0 1.36719,0.22787 1.77735,0.6836 0.43294,0.45573 0.6608,0.97981 0.68359,1.57226 l -1.33301,21.63575 0.47852,-0.0342 8.98926,-21.43067 c 0.0684,-0.31901 0.21647,-0.62662 0.44433,-0.92285 0.22787,-0.29623 0.52409,-0.54688 0.88868,-0.75195 0.36458,-0.22787 0.76334,-0.41016 1.19628,-0.54688 0.45573,-0.13672 0.93425,-0.20508 1.43555,-0.20508 1.32161,0 2.38118,0.27344 3.17871,0.82032 0.79753,0.52409 1.19629,1.20768 1.19629,2.05078 0,0.63802 -0.0912,1.24186 -0.27344,1.81152 -0.1595,0.56966 -0.39876,1.19629 -0.71777,1.87988 -0.29623,0.66081 -0.66081,1.40137 -1.09375,2.22168 -0.41015,0.82031 -0.86588,1.78874 -1.36719,2.90528 -0.1595,0.41015 -0.29622,0.8317 -0.41015,1.26465 -0.11393,0.38737 -0.21647,0.8317 -0.30762,1.333 -0.0684,0.47852 -0.10254,0.97982 -0.10254,1.50391 0,0.54687 0.0684,1.08236 0.20508,1.60645 0.13672,0.52409 0.37598,1.0026 0.71777,1.43554 0.3418,0.41016 0.80892,0.74056 1.40137,0.99121 0.59245,0.25065 1.35579,0.37598 2.29004,0.37598 0.68359,0 1.46973,-0.1709 2.3584,-0.5127 0.91145,-0.36458 1.76594,-0.77473 2.56347,-1.23046 0.93425,-0.52409 1.89128,-1.11654 2.8711,-1.77735 l 0,8.03223 c -1.50391,0.95703 -3.06478,1.72038 -4.68262,2.29004 -1.59505,0.56966 -3.12175,0.85449 -4.58008,0.85449 -1.23047,0 -2.33561,-0.18229 -3.31543,-0.54688 -0.95703,-0.38737 -1.77734,-0.90006 -2.46094,-1.53808 -0.66081,-0.63802 -1.18489,-1.35579 -1.57226,-2.15332 -0.36459,-0.79753 -0.55827,-1.62923 -0.58106,-2.49512 -0.66081,1.36719 -1.41276,2.76855 -2.25586,4.2041 -0.84309,1.43555 -1.72037,2.73438 -2.63183,3.89649 -0.88867,1.16211 -1.78874,2.11914 -2.7002,2.87109 -0.88867,0.72917 -1.73176,1.09375 -2.52929,1.09375 -1.32162,0 -2.34701,-0.3304 -3.07618,-0.99121 -0.72917,-0.68359 -1.27604,-1.53809 -1.64062,-2.56348 -6.1182,4.10124 -15.03697,4.06029 -23.64379,2.04143 -1.73052,-0.0446 7.5449,-3.86599 7.50215,-4.55001 5.04779,0.81302 15.51997,0.7772 14.94537,-9.83022 z"
             id="path4308"
             inkscape:connector-curvature="0"
             sodipodi:nodetypes="cccsccccsccccccccscsccccccsscsscccccsccccsccsccccc"
             style="fill:#d40000" />
          <path
             inkscape:connector-curvature="0"
             d="m 310.81424,494.52972 q -3.21289,0 -5.63965,-1.16211 -2.39258,-1.1621 -3.99902,-3.11035 -1.60645,-1.98242 -2.42676,-4.5459 -0.78613,-2.59765 -0.78613,-5.43457 0,-1.91406 0.37597,-4.0332 0.37598,-2.15332 1.12793,-4.2041 0.78614,-2.05078 1.94825,-3.89648 1.1621,-1.87989 2.70019,-3.28125 1.57227,-1.43555 3.48633,-2.25586 1.94824,-0.8545 4.30664,-0.8545 1.91406,0 3.55469,0.61524 1.64062,0.61523 2.83691,1.74316 1.23047,1.09375 1.91406,2.66602 0.6836,1.57226 0.6836,3.52051 0,2.11914 -1.05957,4.23828 -1.02539,2.11914 -2.8711,3.99902 -1.8457,1.87988 -4.40918,3.34961 -2.52929,1.46973 -5.50293,2.29004 0.5127,0.92285 0.99121,1.53808 0.5127,0.61524 1.0254,0.95704 0.51269,0.34179 1.05957,0.47851 0.58105,0.13672 1.23046,0.13672 2.05079,0 4.30665,-0.82031 2.29003,-0.82031 4.44335,-2.05078 2.15332,-1.23047 4.06739,-2.66602 1.91406,-1.46973 3.24707,-2.76855 l 4.40918,4.58007 q -3.00782,3.11036 -6.3916,5.50293 -1.46973,1.02539 -3.17872,2.01661 -1.6748,0.99121 -3.55468,1.77734 -1.84571,0.75195 -3.86231,1.23047 -1.98242,0.44433 -4.0332,0.44433 z m -4.5459,-16.06445 q 1.23047,0 2.66602,-0.61523 1.46972,-0.64942 2.70019,-1.64063 1.26465,-0.99121 2.11914,-2.15332 0.85449,-1.16211 0.85449,-2.25586 0,-1.53808 -0.58105,-2.52929 -0.54687,-0.99122 -1.36719,-0.99122 -1.46972,0 -2.52929,0.54688 -1.02539,0.54687 -1.74317,1.43555 -0.68359,0.85449 -1.12793,1.98242 -0.41015,1.09375 -0.64941,2.22168 -0.20508,1.12793 -0.27344,2.1875 -0.0684,1.05957 -0.0684,1.81152 z"
             style="fill:#d40000"
             id="path4310" />
          <path
             inkscape:connector-curvature="0"
             d="m 342.46463,449.07074 q -2.22168,4.0332 -3.96484,6.0498 -1.74317,2.01661 -2.83692,2.01661 -1.5039,0 -1.5039,-3.45215 0,-3.34961 0.95703,-6.01563 0.95703,-2.66601 2.70019,-4.71679 1.70899,-2.08497 4.06739,-3.52051 2.39257,-1.46973 5.19531,-2.39258 2.83691,-0.95703 5.98144,-1.40137 3.14453,-0.44433 6.45996,-0.44433 3.86231,0 7.75879,0.58105 3.89649,0.54688 7.48535,1.57227 3.58887,1.02539 6.69922,2.49511 3.11036,1.43555 5.40039,3.21289 2.32422,1.74317 3.62305,3.79395 1.33301,2.05078 1.33301,4.27246 0,2.63184 -1.16211,5.19531 -1.12793,2.56348 -3.58887,4.64844 -2.42676,2.05078 -6.25488,3.38379 -3.79395,1.33301 -9.12598,1.43555 3.38379,0 5.91309,1.09375 2.5293,1.05957 4.23828,2.90527 1.70898,1.81152 2.56348,4.2041 0.85449,2.39258 0.85449,5.02442 0,2.15332 -0.58106,4.375 -0.58105,2.22168 -1.74316,4.27246 -1.16211,2.05078 -2.90527,3.8623 -1.74317,1.77735 -4.10157,3.11035 -2.32421,1.33301 -5.26367,2.08496 -2.93945,0.78614 -6.45996,0.78614 -2.22168,0 -4.68262,-0.30762 -2.46093,-0.27344 -4.99023,-0.78613 -2.49512,-0.47852 -4.92188,-1.16211 -2.42675,-0.6836 -4.58007,-1.46973 -0.95703,-0.23926 -1.70899,-0.71777 -0.71777,-0.47852 -0.71777,-1.70899 0,-5.67382 0.27344,-11.62109 0.30761,-5.94727 1.19629,-11.62109 0.88867,-5.67383 2.56347,-10.80079 1.67481,-5.16113 4.44336,-9.22851 2.42676,-1.67481 4.40918,-1.67481 2.49512,0 4.16992,2.80274 -1.57226,2.11914 -2.70019,4.7168 -1.09375,2.59765 -1.84571,5.46875 -0.75195,2.83691 -1.23046,5.81054 -0.44434,2.97364 -0.71778,5.81055 -0.1709,1.60644 -0.30761,3.41797 -0.10254,1.81152 -0.20508,3.6914 -0.10254,1.87989 -0.1709,3.75977 -0.0342,1.8457 -0.0342,3.55469 0,0.27343 0,0.75195 0.0342,0.47852 0.10254,0.99121 0.0684,0.5127 0.20508,0.95703 0.13671,0.41016 0.41015,0.61524 2.08496,0.68359 4.47754,1.16211 2.39258,0.47851 4.78516,0.47851 2.90527,0 5.63965,-0.68359 2.73437,-0.71778 4.85351,-2.22168 2.11914,-1.53809 3.38379,-3.89649 1.29883,-2.39257 1.29883,-5.77636 0,-1.98242 -0.75195,-3.28125 -0.75196,-1.33301 -1.98243,-2.22168 -1.19629,-0.88867 -2.76855,-1.40137 -1.53809,-0.54687 -3.17871,-0.95703 -1.60645,-0.44434 -3.17871,-0.85449 -1.53809,-0.41016 -2.76856,-1.02539 -1.19629,-0.64942 -1.94824,-1.57227 -0.75195,-0.95703 -0.75195,-2.46094 0,-0.71777 0.0684,-1.23047 0.10254,-0.54687 0.41015,-0.88867 0.3418,-0.34179 0.95703,-0.51269 0.64942,-0.1709 1.74317,-0.1709 1.46972,0 2.66601,0.13672 1.23047,0.10254 2.63184,0.10254 3.28125,0 5.91309,-0.78614 2.66601,-0.82031 4.51171,-2.1875 1.87989,-1.36718 2.8711,-3.17871 1.02539,-1.8457 1.02539,-3.93066 0,-1.36719 -0.78613,-2.49512 -0.78614,-1.16211 -2.22168,-2.05078 -1.40137,-0.92285 -3.31543,-1.60645 -1.91407,-0.68359 -4.16993,-1.12792 -2.25585,-0.47852 -4.75097,-0.6836 -2.49512,-0.23926 -5.0586,-0.23926 -3.24707,0 -6.42578,0.37598 -3.14453,0.3418 -5.8789,1.09375 -2.7002,0.71777 -4.81934,1.8457 -2.08496,1.09375 -3.17871,2.56348 z"
             style="fill:#d40000"
             id="path4312" />
          <path
             inkscape:connector-curvature="0"
             d="m 388.94901,487.38617 q 0,-1.50391 0.17089,-3.48633 0.1709,-2.0166 0.44434,-4.23828 0.30762,-2.22168 0.68359,-4.51172 0.41016,-2.32422 0.8545,-4.40918 0.44433,-2.08496 0.88867,-3.82812 0.44433,-1.74317 0.88867,-2.8711 0.27344,-0.75195 0.54687,-1.19629 0.27344,-0.44433 0.61524,-0.68359 0.37598,-0.27344 0.88867,-0.3418 0.54688,-0.10254 1.33301,-0.10254 0.88867,0 1.36719,0.10254 0.51269,0.0684 0.75195,0.41016 0.23926,0.30762 0.27344,0.92285 0.0684,0.61524 0.0684,1.67481 0,1.26464 0,3.07617 0,1.77734 0.0684,3.52051 l 0.37597,0 q 0.6836,-1.36719 1.53809,-3.042 0.85449,-1.70898 1.98242,-3.17871 1.12793,-1.46972 2.56348,-2.46094 1.43554,-1.02539 3.31543,-1.02539 0.64941,0 1.26464,0.23926 0.61524,0.20508 1.05957,0.61524 0.47852,0.41015 0.75196,1.02539 0.27344,0.58105 0.27344,1.333 0,0.58106 -0.1709,1.64063 -0.1709,1.02539 -0.37598,2.1875 -0.20508,1.12793 -0.37598,2.22168 -0.17089,1.05957 -0.17089,1.77734 0,1.23047 0.23925,2.05078 0.23926,0.82032 0.61524,1.33301 0.41015,0.47852 0.88867,0.6836 0.51269,0.20507 1.05957,0.20507 1.53809,0 3.17871,-0.68359 1.64063,-0.68359 3.00781,-1.53809 1.60645,-0.99121 3.14453,-2.25585 l -0.51269,7.99804 q -0.88867,0.58106 -2.0166,1.29883 -1.12793,0.71777 -2.42676,1.36719 -1.26465,0.61523 -2.66602,1.05957 -1.36718,0.41015 -2.80273,0.41015 -2.56348,0 -4.13574,-1.02539 -1.57227,-1.05957 -2.49512,-2.73437 -0.92285,-1.70899 -1.36719,-3.79395 -0.44433,-2.11914 -0.71777,-4.27246 l -0.54688,0 -6.11816,17.05567 q -0.47852,1.333 -0.92285,2.22168 -0.41016,0.85449 -0.85449,1.40136 -0.44434,0.54688 -0.95703,0.78614 -0.5127,0.20507 -1.12793,0.20507 -1.40137,0 -2.25586,-0.58105 -0.8545,-0.61523 -1.33301,-1.60645 -0.44434,-1.02539 -0.61524,-2.29003 -0.13671,-1.29883 -0.13671,-2.66602 z"
             style="fill:#d40000"
             id="path4314" />
          <path
             inkscape:connector-curvature="0"
             d="m 439.46658,468.92914 q 0.99121,1.98242 1.46973,4.2041 0.5127,2.1875 0.5127,4.2041 0,2.0166 -0.44434,4.06738 -0.44434,2.05079 -1.29883,3.96485 -0.82031,1.91406 -2.05078,3.58887 -1.19629,1.6748 -2.76855,2.90527 -1.53809,1.23047 -3.38379,1.94824 -1.84571,0.71777 -3.93067,0.71777 -3.00781,0 -5.16113,-1.29882 -2.11914,-1.33301 -3.48633,-3.45215 -1.36719,-2.11914 -2.0166,-4.78516 -0.61523,-2.66601 -0.61523,-5.40039 0,-3.75976 1.12792,-7.00684 1.12793,-3.28125 3.2129,-5.67382 2.11914,-2.42676 5.16113,-3.79395 3.04199,-1.40137 6.83594,-1.40137 3.24707,0 6.08398,1.02539 2.83691,0.99122 5.29785,2.7002 2.49512,1.6748 4.61426,3.8623 2.15332,2.1875 3.99902,4.51172 l -0.64941,4.81934 q -0.92285,-1.23047 -2.49512,-2.66602 -1.57226,-1.43554 -3.34961,-2.80273 -1.74316,-1.36719 -3.45215,-2.56348 -1.70898,-1.23047 -2.93945,-2.05078 l -0.27344,0.37598 z m -10.56152,19.03808 q 1.16211,0 2.25586,-1.16211 1.09375,-1.19628 1.91406,-2.97363 0.82031,-1.81152 1.29883,-3.96484 0.5127,-2.1875 0.5127,-4.16992 0,-1.57227 -0.23926,-2.90528 -0.23926,-1.36718 -0.71778,-2.3584 -0.47851,-0.99121 -1.23046,-1.57226 -0.75196,-0.58106 -1.81153,-0.58106 -1.40137,0 -2.66601,1.19629 -1.26465,1.19629 -2.22168,3.07618 -0.95703,1.8457 -1.50391,4.10156 -0.54687,2.25586 -0.54687,4.34082 0,1.43554 0.27343,2.70019 0.27344,1.26465 0.85449,2.22168 0.58106,0.92285 1.53809,1.50391 0.95703,0.54687 2.29004,0.54687 z"
             style="fill:#d40000"
             id="path4316" />
          <path
             inkscape:connector-curvature="0"
             d="m 463.15311,477.64496 q -0.99121,3.72558 -2.3584,6.83594 -1.33301,3.07617 -2.8711,5.33203 -1.53808,2.22168 -3.17871,3.48633 -1.64062,1.23046 -3.21289,1.23046 -2.66601,0 -3.93066,-3.93066 -1.23047,-3.93066 -1.23047,-11.62109 0,-1.09375 0,-1.91407 0,-0.85449 0.0342,-1.6748 0.0342,-0.85449 0.10254,-1.81152 0.0684,-0.99122 0.1709,-2.3584 0.0342,-0.3418 0.13672,-1.16211 0.13671,-0.85449 0.37597,-1.91406 0.27344,-1.05957 0.6836,-2.1875 0.44433,-1.16211 1.09375,-2.08497 0.68359,-0.95703 1.57226,-1.57226 0.92285,-0.61524 2.1875,-0.61524 l 0.82031,0.0684 q 1.50391,0 2.29004,0.61524 0.82032,0.58105 0.82032,1.57226 l -2.39258,18.49121 0.44433,-0.0342 q 1.50391,-3.48633 2.59766,-6.35743 1.12793,-2.90527 2.05078,-5.19531 0.95703,-2.29004 1.81152,-3.99902 0.88868,-1.70899 1.91407,-2.83692 1.02539,-1.12793 2.29004,-1.6748 1.29882,-0.58106 3.07617,-0.58106 1.5039,0 2.29004,0.61524 0.82031,0.58105 0.82031,1.57226 l -2.80273,18.49121 0.47851,-0.0342 8.16895,-18.25196 q 0.41015,-0.95703 1.77734,-1.6748 1.36719,-0.75196 3.24707,-0.75196 1.94824,0 3.14453,0.82032 1.19629,0.78613 1.19629,2.05078 0,0.95703 -0.3418,2.05078 -0.30761,1.09375 -0.68359,2.05078 -0.37598,0.92285 -0.71777,1.60645 -0.3418,0.64941 -0.37598,0.71777 -0.75195,1.36719 -1.40137,2.5293 -0.61523,1.16211 -1.09375,2.05078 -0.58105,1.02539 -1.02539,1.91406 0.47852,1.33301 1.23047,2.39258 0.64942,0.88867 1.60645,1.64062 0.95703,0.75196 2.29004,0.75196 1.12793,0 2.59765,-0.58106 1.46973,-0.61523 2.76856,-1.36719 1.53808,-0.85449 3.14453,-1.94824 l 0,8.03223 q -2.25586,1.43555 -4.68262,2.29004 -2.39258,0.85449 -4.61426,0.85449 -1.74316,0 -3.31543,-0.41016 -1.53808,-0.41015 -2.73437,-1.29882 -1.16211,-0.88868 -1.87988,-2.29004 -0.6836,-1.43555 -0.71778,-3.45215 -1.16211,2.73437 -2.42676,5.02441 -1.26464,2.25586 -2.59765,3.89649 -1.33301,1.64062 -2.7002,2.56347 -1.36719,0.92285 -2.73437,0.92285 -0.47852,0 -0.85449,-0.71777 -0.3418,-0.75195 -0.58106,-1.98242 -0.23926,-1.26465 -0.41016,-2.90527 -0.13671,-1.67481 -0.23925,-3.52051 -0.0684,-1.84571 -0.10254,-3.79395 -0.0342,-1.94824 -0.0342,-3.79394 l -0.99121,-0.1709 z"
             style="fill:#d40000"
             id="path4318" />
          <path
             inkscape:connector-curvature="0"
             d="m 492.71854,487.38617 q 0,-2.25586 0.27343,-5.19531 0.27344,-2.97364 0.6836,-6.01563 0.41015,-3.07617 0.92285,-5.91308 0.51269,-2.83692 0.99121,-4.85352 0.37598,-1.57227 1.43555,-2.63184 1.09375,-1.05957 2.93945,-1.05957 1.8457,0 2.56348,1.12793 0.71777,1.12793 0.71777,3.00782 0,0.51269 -0.10254,1.40136 -0.10254,0.8545 -0.27344,1.91407 -0.13672,1.02539 -0.30761,2.15332 -0.1709,1.09375 -0.3418,2.05078 -0.13672,0.92285 -0.23926,1.64062 -0.10254,0.6836 -0.10254,0.92285 l 0.6836,0 q 0.20507,-0.37597 0.64941,-1.19628 0.44434,-0.8545 1.02539,-1.94825 0.58106,-1.09375 1.23047,-2.29004 0.68359,-1.23046 1.26465,-2.32421 0.58105,-1.12793 1.05957,-1.98243 0.47851,-0.85449 0.71777,-1.26465 1.09375,-1.8457 2.49512,-2.52929 1.40137,-0.6836 3.11035,-0.6836 1.70899,0 2.7002,1.43555 1.02539,1.43555 1.02539,3.96484 0,0.37598 -0.1709,1.26465 -0.13672,0.88868 -0.37598,2.11914 -0.23926,1.23047 -0.54687,2.7002 -0.27344,1.46973 -0.5127,3.00781 -0.23926,1.53809 -0.41015,3.04199 -0.13672,1.50391 -0.13672,2.76856 0,2.11914 0.51269,3.48633 0.54688,1.36718 1.67481,1.36718 0.51269,0 1.16211,-0.30761 0.68359,-0.30762 1.43554,-0.78614 0.78614,-0.51269 1.57227,-1.16211 0.82031,-0.64941 1.60644,-1.333 1.81153,-1.60645 3.79395,-3.62305 l 0.58105,7.65625 -1.70898,1.29883 q -1.40137,1.05957 -2.87109,2.11914 -1.43555,1.05957 -3.00782,1.91406 -1.57226,0.82031 -3.28125,1.36719 -1.70898,0.51269 -3.58886,0.51269 -1.87989,0 -3.17872,-2.70019 -1.26464,-2.73438 -1.26464,-7.96387 0,-2.05078 0.27343,-4.40918 0.27344,-2.39258 0.6836,-5.12695 l -0.54688,0 -8.95508,17.77344 q -0.68359,1.40136 -1.53808,1.91406 -0.85449,0.51269 -1.98242,0.51269 -1.40137,0 -2.25586,-0.58105 -0.85449,-0.61523 -1.33301,-1.60645 -0.44434,-1.02539 -0.61523,-2.29003 -0.13672,-1.29883 -0.13672,-2.66602 z"
             style="fill:#d40000"
             id="path4320" />
          <path
             inkscape:connector-curvature="0"
             d="m 545.21854,487.24945 q -1.23047,1.12793 -3.07618,2.42676 -1.81152,1.26465 -3.93066,2.3584 -2.11914,1.05957 -4.34082,1.77734 -2.1875,0.71777 -4.16992,0.71777 -1.77735,0 -3.00781,-0.47851 -1.19629,-0.5127 -1.94825,-1.40137 -0.75195,-0.88867 -1.09375,-2.15332 -0.30761,-1.29883 -0.30761,-2.83691 0,-2.15332 0.47851,-4.99024 0.5127,-2.87109 1.23047,-5.91308 0.71777,-3.07618 1.50391,-6.11817 0.82031,-3.04199 1.43554,-5.60547 0.23926,-0.88867 0.95704,-1.5039 0.71777,-0.64942 1.60644,-1.02539 0.92285,-0.41016 1.87988,-0.58106 0.99121,-0.20508 1.77735,-0.20508 1.43554,0 1.94824,0.54688 0.51269,0.51269 0.51269,1.40137 0,0.75195 -0.34179,2.1875 -0.3418,1.40136 -0.85449,3.21289 -0.5127,1.77734 -1.09375,3.8623 -0.58106,2.05078 -1.09375,4.13574 -0.5127,2.05079 -0.8545,4.03321 -0.34179,1.94824 -0.34179,3.5205 0,1.53809 0.34179,2.46094 0.3418,0.88867 1.40137,0.88867 1.23047,0 2.73438,-0.85449 1.5039,-0.85449 3.04199,-2.05078 1.53808,-1.23047 3.00781,-2.5293 1.46973,-1.29882 2.59766,-2.22168 l 0,6.93848 z m -15.27832,-35.13672 q 0,-0.78613 0.34179,-1.77734 0.3418,-0.99121 1.09375,-1.8457 0.78614,-0.88868 2.05078,-1.46973 1.29883,-0.61524 3.21289,-0.61524 1.19629,0 2.25586,0.27344 1.05957,0.27344 1.84571,0.85449 0.78613,0.54688 1.23047,1.46973 0.47851,0.92285 0.47851,2.1875 0,1.16211 -0.37597,2.25586 -0.37598,1.09375 -1.19629,1.94824 -0.82032,0.85449 -2.08496,1.40137 -1.23047,0.51269 -2.97364,0.51269 -3.00781,0 -4.44336,-1.40136 -1.43554,-1.43555 -1.43554,-3.79395 z"
             style="fill:#d40000"
             id="path4322" />
          <path
             inkscape:connector-curvature="0"
             d="m 554.31033,494.52972 q -3.21289,0 -5.63965,-1.16211 -2.39257,-1.1621 -3.99902,-3.11035 -1.60644,-1.98242 -2.42676,-4.5459 -0.78613,-2.59765 -0.78613,-5.43457 0,-1.91406 0.37598,-4.0332 0.37597,-2.15332 1.12793,-4.2041 0.78613,-2.05078 1.94824,-3.89648 1.16211,-1.87989 2.70019,-3.28125 1.57227,-1.43555 3.48633,-2.25586 1.94824,-0.8545 4.30664,-0.8545 1.91407,0 3.55469,0.61524 1.64063,0.61523 2.83691,1.74316 1.23047,1.09375 1.91407,2.66602 0.68359,1.57226 0.68359,3.52051 0,2.11914 -1.05957,4.23828 -1.02539,2.11914 -2.87109,3.99902 -1.84571,1.87988 -4.40918,3.34961 -2.5293,1.46973 -5.50293,2.29004 0.51269,0.92285 0.99121,1.53808 0.51269,0.61524 1.02539,0.95704 0.51269,0.34179 1.05957,0.47851 0.58105,0.13672 1.23047,0.13672 2.05078,0 4.30664,-0.82031 2.29004,-0.82031 4.44336,-2.05078 2.15332,-1.23047 4.06738,-2.66602 1.91406,-1.46973 3.24707,-2.76855 l 4.40918,4.58007 q -3.00781,3.11036 -6.3916,5.50293 -1.46973,1.02539 -3.17871,2.01661 -1.67481,0.99121 -3.55469,1.77734 -1.8457,0.75195 -3.8623,1.23047 -1.98243,0.44433 -4.03321,0.44433 z m -4.5459,-16.06445 q 1.23047,0 2.66602,-0.61523 1.46973,-0.64942 2.7002,-1.64063 1.26464,-0.99121 2.11914,-2.15332 0.85449,-1.16211 0.85449,-2.25586 0,-1.53808 -0.58106,-2.52929 -0.54687,-0.99122 -1.36718,-0.99122 -1.46973,0 -2.5293,0.54688 -1.02539,0.54687 -1.74316,1.43555 -0.6836,0.85449 -1.12793,1.98242 -0.41016,1.09375 -0.64942,2.22168 -0.20508,1.12793 -0.27344,2.1875 -0.0684,1.05957 -0.0684,1.81152 z"
             style="fill:#d40000"
             id="path4324" />
          <path
             inkscape:connector-curvature="0"
             d="m 568.59744,481.40472 q 1.91407,-1.64062 3.11035,-2.73437 1.19629,-1.09375 2.05079,-1.98242 0.85449,-0.92285 1.53808,-1.84571 0.71777,-0.92285 1.67481,-2.1875 0.95703,-1.26464 2.32421,-3.07617 1.36719,-1.8457 3.55469,-4.58008 0.44434,-0.61523 0.99121,-1.19628 0.54688,-0.58106 1.19629,-1.0254 0.6836,-0.47851 1.46973,-0.75195 0.82031,-0.30762 1.81152,-0.30762 1.64063,0 2.5293,0.37598 0.88867,0.3418 1.29883,0.85449 0.41015,0.5127 0.47851,1.09375 0.0684,0.54688 0.0684,0.95703 0,0.82032 -0.64941,1.81153 -0.64942,0.99121 -1.43555,1.91406 -0.78613,0.92285 -1.5039,1.70898 -0.6836,0.75196 -0.78614,1.12793 0,1.05957 0.13672,1.94825 0.1709,0.85449 0.41016,1.70898 0.27343,0.82031 0.54687,1.77734 0.27344,0.92286 0.5127,2.15332 0.27344,1.23047 0.41015,2.83692 0.1709,1.60644 0.1709,3.79394 1.23047,-0.82031 2.63184,-1.46972 1.43555,-0.6836 2.97363,-1.40137 1.53809,-0.71777 3.14453,-1.57227 1.64063,-0.88867 3.28125,-2.11914 l 0.0342,7.65625 q -2.11914,1.64063 -4.92187,3.07618 -2.76856,1.43554 -5.84473,2.52929 -3.04199,1.09375 -6.18652,1.74317 -3.11035,0.61523 -5.91309,0.61523 -2.0166,0 -3.75976,-0.37598 -1.74317,-0.37597 -3.07618,-1.1621 -1.29882,-0.82032 -2.11914,-2.11915 -0.82031,-1.29882 -0.99121,-3.14453 -0.47851,0.10254 -0.95703,0.13672 -0.44434,0.0342 -0.88867,0.0342 -0.54688,0 -1.02539,-0.0342 -0.47852,-0.0342 -0.82031,-0.23926 -0.3418,-0.23925 -0.54688,-0.71777 -0.20508,-0.51269 -0.20508,-1.43555 0,-0.82031 0.41016,-1.5039 0.41016,-0.71778 0.95703,-1.26465 0.54688,-0.54688 1.09375,-0.95703 0.54688,-0.41016 0.82031,-0.64942 z m 4.375,4.375 q 0.41016,0 0.88867,0.5127 0.5127,0.51269 1.16211,1.12793 0.64942,0.61523 1.50391,1.12793 0.85449,0.51269 1.94824,0.51269 1.33301,0 2.1875,-0.44433 0.88867,-0.44434 1.40137,-1.16211 0.51269,-0.75195 0.71777,-1.70899 0.20508,-0.99121 0.20508,-2.05078 0,-0.92285 -0.13672,-1.87988 -0.10254,-0.95703 -0.30761,-1.81152 -0.1709,-0.88867 -0.41016,-1.64063 -0.20508,-0.78613 -0.37598,-1.33301 l -8.78418,8.75 z"
             style="fill:#d40000"
             id="path4326" />
        </g>
        <path
           style="fill:none;fill-rule:evenodd;stroke:#000000;stroke-width:0;stroke-linecap:butt;stroke-linejoin:miter;stroke-miterlimit:4;stroke-dasharray:none;stroke-opacity:1"
           d="m 74.3426,1045.2139 c 10.92701,-0.2183 41.24818,-8.8403 49.4681,-17.5804 4.90055,-11.2562 -12.70207,-22.4342 -16.11215,-5.0658 -6.07431,-16.5331 -22.30952,-6.2547 -17.39844,5.5758 5.22851,10.7 20.85744,9.7272 33.1942,13.3189"
           id="path4328"
           inkscape:connector-curvature="0"
           sodipodi:nodetypes="ccccc" />
        <path
           style="fill:#d40000;fill-rule:evenodd;stroke:none;stroke-width:0.09290476;stroke-linecap:butt;stroke-linejoin:miter;stroke-miterlimit:4;stroke-dasharray:none;stroke-opacity:1"
           d="m 104.2404,1019.985 c 7.55634,-9.9584 20.61513,-6.8141 20.28713,5.4759 -0.0267,3.9092 -1.78759,7.6703 -3.86336,10.527 -3.76229,5.0118 -9.20575,9.3876 -16.30437,12.1758 -7.21961,-3.3037 -14.73083,-7.7135 -19.10416,-15.761 -7.45955,-15.4052 9.36831,-23.868 18.98476,-12.4177 z"
           id="path4330"
           inkscape:connector-curvature="0"
           sodipodi:nodetypes="cccccc" />
        <path
           sodipodi:nodetypes="cccccccc"
           inkscape:connector-curvature="0"
           id="path4342"
           d="m 105.86652,1021.286 c 6.75452,-6.9364 16.56467,-5.4225 16.7072,3.9503 0.0665,3.9318 -1.94202,7.9244 -3.9616,10.6579 -3.38118,4.2864 -8.15256,8.0121 -14.29357,10.4242 -6.52953,-2.9879 -13.3228,-6.9761 -17.27812,-14.2544 -6.36352,-13.1418 6.98969,-18.782 15.82489,-10.6897 0.89533,0.7522 1.98298,0.801 3.0012,-0.089 z"
           style="fill:#ab0000;fill-opacity:1;fill-rule:evenodd;stroke:none;stroke-width:0.0539093;stroke-linecap:butt;stroke-linejoin:miter;stroke-miterlimit:4;stroke-dasharray:none;stroke-opacity:1" />
        <path
           style="fill:#930000;fill-opacity:1;fill-rule:evenodd;stroke:none;stroke-width:0.0539093;stroke-linecap:butt;stroke-linejoin:miter;stroke-miterlimit:4;stroke-dasharray:none;stroke-opacity:1"
           d="m 105.54993,1023.022 c 5.62268,-5.774 13.78896,-4.5139 13.9076,3.2884 0.0554,3.2729 -1.6166,6.5965 -3.29776,8.872 -2.81459,3.5681 -6.78644,6.6695 -11.89841,8.6774 -5.43539,-2.4872 -11.09032,-5.8072 -14.38285,-11.8658 -5.2972,-10.9397 5.81843,-15.6348 13.17313,-8.8985 0.7453,0.6262 1.6507,0.6669 2.49829,-0.074 z"
           id="path4338"
           inkscape:connector-curvature="0"
           sodipodi:nodetypes="cccccccc" />
      </g>
      <path
         clip-path="none"
         style="fill:#ffffff;fill-opacity:1;fill-rule:evenodd;stroke:none;stroke-width:0.0539093;stroke-linecap:butt;stroke-linejoin:miter;stroke-miterlimit:4;stroke-dasharray:none;stroke-opacity:1"
         d="m 351.37537,1120.472 c 1.87864,-1.9292 4.60715,-1.5082 4.64679,1.0987 0.0185,1.0935 -0.54013,2.204 -1.10184,2.9643 -0.94041,1.1922 -2.26748,2.2284 -3.97549,2.8993 -1.81606,-0.831 -3.70548,-1.9403 -4.80558,-3.9646 -1.7699,-3.6552 1.94405,-5.2239 4.40139,-2.9732 0.24902,0.2093 0.55153,0.2229 0.83473,-0.025 z"
         id="path4332"
         inkscape:connector-curvature="0"
         sodipodi:nodetypes="cccccccc" />
    </g>
  </g>
</svg>
